{
  "title": "Relatos Salvajes 2014 DVDRip Xvid AC3 Castellano Y Latino URBiN4",
  "uid": 11709523,
  "size": 1491446738,
  "categoryP": "video",
  "categoryS": "movies",
  "magnet": "?xt=urn:btih:f4cac53c0e934261d31a01fba6b1275a7e81d7b2&amp;dn=Relatos+Salvajes+2014+DVDRip+Xvid+AC3+Castellano+Y+Latino+URBiN4&amp;tr=udp%3A%2F%2Ftracker.openbittorrent.com%3A80&amp;tr=udp%3A%2F%2Fopen.demonii.com%3A1337&amp;tr=udp%3A%2F%2Ftracker.coppersurfer.tk%3A6969&amp;tr=udp%3A%2F%2Fexodus.desync.com%3A6969",
  "seeders": 192,
  "leechers": 18,
  "uploader": "noriegaRJ",
  "files": 5,
  "time": 1424270732,
  "description": "Title: Relatos Salvajes aka Wild Tales\n\n\nIMDB Link:                                     &lt;a href=&quot;\nhttp://www.imdb.com/title/tt3011894/&quot; rel=&quot;nofollow&quot; target=&quot;_NEW&quot;&gt;\nhttp://www.imdb.com/title/tt3011894/&lt;/a&gt;\n\n\nPlot: A story about love deception, the return of the past, a tragedy, or even the violence contained in an everyday detail, appear themselves to push them towards the abyss, into the undeniable pleasure of losing control.\n\n\n\nGeneral\nComplete name                            : Relatos Salvajes 2014 DVDRip Xvid AC3 Castellano Y Latino URBiN4HD\nFormat                                   : AVI\nFormat/Info                              : Audio Video Interleave\nFile size                                : 1.39 GiB\nDuration                                 : 2h 2mn\nOverall bit rate                         : 1 630 Kbps\nWriting application                      : Lavf56.1.100\n\nVideo\nID                                       : 0\nFormat                                   : MPEG-4 Visual\nFormat profile                           : Simple@L1\nFormat settings, BVOP                    : No\nFormat settings, QPel                    : No\nFormat settings, GMC                     : No warppoints\nFormat settings, Matrix                  : Default (H.263)\nCodec ID                                 : XVID\nCodec ID/Hint                            : XviD\nDuration                                 : 2h 2mn\nBit rate                                 : 1 236 Kbps\nWidth                                    : 720 pixels\nHeight                                   : 304 pixels\nDisplay aspect ratio                     : 2.40:1\nFrame rate                               : 23.976 fps\nColor space                              : YUV\nChroma subsampling                       : 4:2:0\nBit depth                                : 8 bits\nScan type                                : Progressive\nCompression mode                         : Lossy\nBits/(Pixel*Frame)                       : 0.236\nStream size                              : 1.05 GiB (76%)\nWriting library                          : Lavc56.0.101\n\nAudio\nID                                       : 1\nFormat                                   : AC-3\nFormat/Info                              : Audio Coding 3\nCodec ID                                 : 00001000-0000-0020-8000-00AA00389B71\nDuration                                 : 2h 2mn\nBit rate                                 : 320 Kbps\nChannel count                            : 6 channels\nChannel positions                        : Front: L C R, Side: L R, LFE\nSampling rate                            : 48.0 KHz\nBit depth                                : 16 bits\nCompression mode                         : Lossy\nStream size                              : 279 MiB (20%)\n\n\n\nThanks to those helping me seed. Leechers remember, the community depends on you. If nobody shares, the freebies go away. Remember, the only reason you can download this free movie is because others are generous enough to keep sharing it with you. If nobody shares, everybody loses, so even if its for an extra hour or two after you get it, remember, others want to see it too, and they can't without you.\n\n\nSEE MY OTHERS UPLOADS:                                                             &lt;a href=&quot;\nhttp://thepiratebay.se/user/noriegaRJ&quot; rel=&quot;nofollow&quot; target=&quot;_NEW&quot;&gt;\nhttp://thepiratebay.se/user/noriegaRJ&lt;/a&gt;\n\nAND SEE THIS ANOTHERS UPLOADS FROM &quot;HORiZON-ArtSubs&quot;:             &lt;a href=&quot;\nhttp://thepiratebay.se/user/artsubs&quot; rel=&quot;nofollow&quot; target=&quot;_NEW&quot;&gt;\nhttp://thepiratebay.se/user/artsubs&lt;/a&gt;             &lt;a href=&quot;\nhttp://thepiratebay.se/user/lletaif&quot; rel=&quot;nofollow&quot; target=&quot;_NEW&quot;&gt;\nhttp://thepiratebay.se/user/lletaif&lt;/a&gt;",
  "parsed": {
    "xt": "urn:btih:f4cac53c0e934261d31a01fba6b1275a7e81d7b2",
    "dn": "Relatos Salvajes 2014 DVDRip Xvid AC3 Castellano Y Latino URBiN4",
    "tr": [
      "udp://exodus.desync.com:6969",
      "udp://open.demonii.com:1337",
      "udp://tracker.coppersurfer.tk:6969",
      "udp://tracker.openbittorrent.com:80"
    ],
    "infoHash": "f4cac53c0e934261d31a01fba6b1275a7e81d7b2",
    "infoHashBuffer": {
      "type": "Buffer",
      "data": [
        244,
        202,
        197,
        60,
        14,
        147,
        66,
        97,
        211,
        26,
        1,
        251,
        166,
        177,
        39,
        90,
        126,
        129,
        215,
        178
      ]
    },
    "name": "Relatos Salvajes 2014 DVDRip Xvid AC3 Castellano Y Latino URBiN4",
    "announce": [
      "udp://exodus.desync.com:6969",
      "udp://open.demonii.com:1337",
      "udp://tracker.coppersurfer.tk:6969",
      "udp://tracker.openbittorrent.com:80"
    ],
    "urlList": []
  },
  "previous": 210,
  "peers": 50,
  "last_updated": "2016-12-25T18:09:38.642Z"
}